<?xml version="1.0" encoding="UTF-8" standalone="no"?>
<!DOCTYPE svg PUBLIC "-//W3C//DTD SVG 1.1//EN" "http://www.w3.org/Graphics/SVG/1.1/DTD/svg11.dtd">
<svg width="100%" height="100%" viewBox="0 0 512 512" version="1.1" xmlns="http://www.w3.org/2000/svg" xmlns:xlink="http://www.w3.org/1999/xlink" xml:space="preserve" xmlns:serif="http://www.serif.com/" style="fill-rule:evenodd;clip-rule:evenodd;stroke-linejoin:round;stroke-miterlimit:2;">
    <rect id="Page-1" serif:id="Page 1" x="0" y="0" width="512" height="512" style="fill:none;"/>
    <g id="Page-11" serif:id="Page 1">
        <g id="Layer-1" serif:id="Layer 1">
            <g transform="matrix(1,0,0,1,347.453,208.016)">
                <path d="M0,96.051C-1.076,94.828 -2.198,93.402 -3.375,91.738C-3.973,90.892 -4.571,90.091 -5.15,89.328C-15.497,75.791 -22.808,75.064 -22.808,75.064C-22.808,75.064 -15.57,79.203 -6.373,92.998C-5.509,94.304 -4.598,95.554 -3.651,96.732C-1.674,105.965 0.533,114.215 2.823,120.634C5.343,127.743 5.159,138.494 2.272,152.611C1.6,155.913 0.717,159.15 -0.349,162.314C-4.093,173.341 -10.199,183.439 -18.302,191.9L-19.387,193.022L-7.449,209.006C-6.033,210.9 -6.392,212.979 -7.201,214.294C-8.02,215.637 -9.749,216.915 -12.131,216.501C-21.557,214.855 -26.376,210.183 -26.422,210.137L-26.698,209.916L-34.35,204.821L-35.343,205.41C-47.658,212.721 -61.756,216.584 -76.113,216.584L-106.793,216.584C-121.149,216.584 -135.248,212.721 -147.562,205.41L-148.556,204.821L-156.207,209.916L-156.483,210.137C-156.529,210.183 -161.348,214.855 -170.775,216.501C-173.157,216.915 -174.886,215.637 -175.705,214.294C-176.514,212.979 -176.873,210.9 -175.456,209.006L-163.519,193.022L-164.604,191.9C-172.706,183.439 -178.813,173.341 -182.556,162.314C-183.623,159.15 -184.506,155.913 -185.177,152.611C-188.065,138.494 -188.249,127.743 -185.729,120.634C-183.439,114.215 -181.232,105.965 -179.254,96.732C-178.307,95.554 -177.397,94.304 -176.532,92.998C-167.335,79.203 -160.098,75.064 -160.098,75.064C-160.098,75.064 -167.409,75.791 -177.755,89.328C-178.335,90.091 -178.933,90.892 -179.53,91.738C-180.708,93.402 -181.83,94.828 -182.906,96.051C-192.029,106.517 -196.995,101.551 -195.846,91.158C-194.806,81.732 -184.46,69.252 -177.498,63.485C-175.898,62.152 -174.472,61.186 -173.378,60.689C-173.332,60.312 -173.286,59.935 -173.249,59.558C-170.987,39.61 -170.297,20.03 -172.302,7.072C-172.89,3.32 -173.387,-1.435 -173.773,-7.063C-174.601,-18.771 -172.476,-30.552 -167.63,-41.137L-167.179,-42.131L-179.797,-59.034C-181.572,-61.416 -181.121,-64.037 -180.11,-65.693C-179.071,-67.385 -176.891,-69.004 -173.902,-68.479C-162.691,-66.52 -156.805,-60.874 -156.759,-60.828L-156.207,-60.294L-154.671,-60.294L-154.129,-60.855C-140.748,-74.687 -122.759,-82.311 -103.482,-82.311L-79.019,-82.311C-59.899,-82.201 -42.066,-74.586 -28.777,-60.855L-28.234,-60.294L-26.698,-60.294L-26.146,-60.828C-26.1,-60.874 -20.215,-66.52 -9.004,-68.479C-6.015,-69.004 -3.835,-67.385 -2.796,-65.693C-1.784,-64.037 -1.334,-61.416 -3.109,-59.034L-15.726,-42.131L-15.276,-41.137C-10.429,-30.552 -8.305,-18.771 -9.132,-7.063C-9.519,-1.435 -10.015,3.32 -10.604,7.072C-12.609,20.03 -11.919,39.61 -9.657,59.558C-9.62,59.935 -9.574,60.312 -9.528,60.689C-8.433,61.186 -7.008,62.152 -5.408,63.485C1.554,69.252 11.901,81.732 12.94,91.158C14.089,101.551 9.123,106.517 0,96.051M-105.791,-115.604C-100.208,-111.024 -92.363,-101.901 -90.929,-85.99L-99.031,-85.99C-98.957,-87.36 -98.424,-102.673 -105.791,-115.604M-78.357,-99.399C-79.635,-96.143 -81.116,-91.398 -81.603,-85.99L-88.087,-85.99C-87.498,-87.627 -84.877,-94.148 -78.357,-99.399M16.048,94.727C15.359,74.724 -5.84,59.935 -5.84,59.935C-8.158,39.895 -8.912,20.214 -6.962,7.642C-6.364,3.789 -5.858,-1.076 -5.454,-6.806C-4.617,-18.762 -6.704,-30.782 -11.478,-41.671L-0.166,-56.827C2.244,-60.064 2.437,-64.194 0.34,-67.615C-1.793,-71.082 -5.61,-72.802 -9.629,-72.103C-18.89,-70.484 -24.813,-66.612 -27.342,-64.635C-41.156,-78.283 -59.338,-85.834 -78.826,-85.981C-77.915,-95.224 -73.896,-102.563 -73.85,-102.645L-71.45,-106.977L-75.745,-104.522C-82.716,-100.53 -86.707,-94.975 -88.823,-91.067C-92.915,-114.068 -109.699,-121.591 -110.463,-121.913L-115.971,-124.295L-112.054,-119.751C-100.843,-106.72 -101.772,-86.266 -101.781,-86.064L-101.781,-85.99L-103.482,-85.99C-123.191,-85.99 -141.612,-78.421 -155.564,-64.635C-158.093,-66.612 -164.015,-70.484 -173.277,-72.103C-177.296,-72.802 -181.112,-71.082 -183.246,-67.615C-185.343,-64.194 -185.15,-60.064 -182.74,-56.827L-171.428,-41.671C-176.201,-30.782 -178.289,-18.762 -177.452,-6.806C-177.047,-1.076 -176.541,3.789 -175.944,7.642C-173.994,20.214 -174.748,39.895 -177.066,59.935C-177.066,59.935 -198.264,74.724 -198.954,94.727C-199.469,109.561 -191.937,109.028 -184.267,102.13C-185.821,108.724 -187.486,114.61 -189.187,119.402C-191.946,127.145 -191.808,138.568 -188.782,153.347C-187.605,159.086 -185.839,164.65 -183.531,169.966C-179.816,178.519 -174.693,186.409 -168.329,193.307L-178.399,206.799C-178.62,207.093 -178.822,207.396 -178.988,207.709C-180.524,210.376 -180.487,213.549 -178.841,216.225C-177.673,218.12 -175.852,219.435 -173.792,219.968C-172.633,220.281 -171.391,220.346 -170.15,220.125C-160.392,218.423 -154.984,213.761 -154.037,212.887L-148.436,209.162C-135.791,216.428 -121.425,220.263 -106.793,220.263L-76.113,220.263C-61.48,220.263 -47.115,216.428 -34.47,209.162L-28.869,212.887C-27.921,213.761 -22.514,218.423 -12.756,220.125C-11.514,220.346 -10.273,220.281 -9.114,219.968C-7.054,219.435 -5.233,218.12 -4.065,216.225C-2.419,213.549 -2.382,210.376 -3.918,207.709C-4.083,207.396 -4.286,207.093 -4.506,206.799L-14.577,193.307C-8.213,186.409 -3.09,178.519 0.625,169.966C2.934,164.65 4.7,159.086 5.877,153.347C8.902,138.568 9.04,127.145 6.281,119.402C4.58,114.61 2.915,108.724 1.361,102.13C9.031,109.028 16.563,109.561 16.048,94.727" style="fill:rgb(8,18,26);fill-rule:nonzero;"/>
            </g>
            <g transform="matrix(1,0,0,1,347.103,347.816)">
                <path d="M0,22.514C-3.743,33.541 -9.85,43.639 -17.952,52.1L-19.037,53.222C-19.037,53.222 -26.919,61.168 -34,65.022L-34.994,65.61C-47.308,72.922 -61.407,76.784 -75.763,76.784L-106.444,76.784C-120.8,76.784 -134.898,72.922 -147.213,65.61L-148.206,65.022C-155.876,60.892 -163.169,53.222 -163.169,53.222L-164.255,52.1C-172.357,43.639 -178.464,33.541 -182.207,22.514C-174.776,-21.079 -136.811,-54.27 -91.103,-54.27C-45.395,-54.27 -7.431,-21.079 0,22.514" style="fill:white;fill-rule:nonzero;"/>
            </g>
            <g transform="matrix(1,0,0,1,269.099,122.026)">
                <path d="M0,-13.409C-1.278,-10.153 -2.759,-5.408 -3.246,0L-9.73,0C-9.142,-1.637 -6.521,-8.158 0,-13.409" style="fill:rgb(38,172,229);fill-rule:nonzero;"/>
            </g>
            <g transform="matrix(1,0,0,1,248.425,92.4118)">
                <path d="M0,29.614C0.074,28.244 0.607,12.931 -6.76,0C-1.177,4.58 6.668,13.704 8.102,29.614L0,29.614Z" style="fill:rgb(38,172,229);fill-rule:nonzero;"/>
            </g>
            <g transform="matrix(1,0,0,1,347.453,191.968)">
                <path d="M0,112.099C-1.076,110.876 -2.198,109.45 -3.375,107.786C-3.973,106.94 -4.571,106.139 -5.15,105.376C-15.497,91.839 -22.808,91.112 -22.808,91.112C-22.808,91.112 -15.57,95.251 -6.373,109.046C-5.509,110.352 -4.598,111.602 -3.651,112.78C-1.674,122.013 0.533,130.263 2.823,136.682C5.343,143.791 5.159,154.542 2.272,168.659C1.6,171.961 0.717,175.198 -0.349,178.362C-7.781,134.769 -45.745,101.578 -91.453,101.578C-137.161,101.578 -175.125,134.769 -182.556,178.362C-183.623,175.198 -184.506,171.961 -185.177,168.659C-188.065,154.542 -188.249,143.791 -185.729,136.682C-183.439,130.263 -181.232,122.013 -179.254,112.78C-178.307,111.602 -177.397,110.352 -176.532,109.046C-167.335,95.251 -160.098,91.112 -160.098,91.112C-160.098,91.112 -167.409,91.839 -177.755,105.376C-178.335,106.139 -178.933,106.94 -179.53,107.786C-180.708,109.45 -181.83,110.876 -182.906,112.099C-192.029,122.565 -196.995,117.599 -195.846,107.206C-194.806,97.78 -184.46,85.3 -177.498,79.533C-175.898,78.2 -174.472,77.234 -173.378,76.737C-173.332,76.36 -173.286,75.983 -173.249,75.606C-170.987,55.658 -170.297,36.078 -172.302,23.12C-172.89,19.368 -173.387,14.613 -173.773,8.985C-174.601,-2.723 -172.476,-14.504 -167.63,-25.089L-167.179,-26.083L-179.797,-42.986C-181.572,-45.368 -181.121,-47.989 -180.11,-49.645C-179.071,-51.337 -176.891,-52.956 -173.902,-52.431C-162.691,-50.472 -156.805,-44.826 -156.759,-44.78L-156.207,-44.246L-154.671,-44.246L-154.129,-44.807C-140.748,-58.639 -122.759,-66.263 -103.482,-66.263L-79.019,-66.263C-59.899,-66.153 -42.066,-58.538 -28.777,-44.807L-28.234,-44.246L-26.698,-44.246L-26.146,-44.78C-26.1,-44.826 -20.215,-50.472 -9.004,-52.431C-6.015,-52.956 -3.835,-51.337 -2.796,-49.645C-1.784,-47.989 -1.334,-45.368 -3.109,-42.986L-15.726,-26.083L-15.276,-25.089C-10.429,-14.504 -8.305,-2.723 -9.132,8.985C-9.519,14.613 -10.015,19.368 -10.604,23.12C-12.609,36.078 -11.919,55.658 -9.657,75.606C-9.62,75.983 -9.574,76.36 -9.528,76.737C-8.433,77.234 -7.008,78.2 -5.408,79.533C1.554,85.3 11.901,97.78 12.94,107.206C14.089,117.599 9.123,122.565 0,112.099" style="fill:rgb(38,172,229);fill-rule:nonzero;"/>
            </g>
            <g transform="matrix(1,0,0,1,227.991,208.917)">
                <path d="M0,7.799C-0.69,7.799 -1.251,7.238 -1.251,6.548C-1.251,5.859 -0.69,5.298 0,5.298C0.69,5.298 1.251,5.859 1.251,6.548C1.251,7.238 0.69,7.799 0,7.799M5.215,2.778C4.644,3.026 4.019,3.164 3.357,3.164C0.828,3.164 -1.232,1.113 -1.232,-1.425C-1.232,-2.74 -0.681,-3.918 0.202,-4.755C-1.232,-5.564 -2.878,-6.015 -4.635,-6.015C-10.116,-6.015 -14.549,-1.582 -14.549,3.9C-14.549,9.372 -10.116,13.814 -4.635,13.814C0.837,13.814 5.279,9.372 5.279,3.9C5.279,3.523 5.261,3.145 5.215,2.778" style="fill:rgb(8,18,26);fill-rule:nonzero;"/>
            </g>
            <g transform="matrix(0,-1,-1,0,227.992,214.215)">
                <path d="M-1.251,-1.251C-1.94,-1.251 -2.502,-0.689 -2.502,0C-2.502,0.69 -1.94,1.251 -1.251,1.251C-0.561,1.251 0,0.69 0,0C0,-0.689 -0.561,-1.251 -1.251,-1.251" style="fill:white;fill-rule:nonzero;"/>
            </g>
            <g transform="matrix(1,0,0,1,223.356,191.084)">
                <path d="M0,43.455C-11.983,43.455 -21.732,33.716 -21.732,21.732C-21.732,9.749 -11.983,0 0,0C11.974,0 21.723,9.749 21.723,21.732C21.723,33.716 11.974,43.455 0,43.455M0,-2.759C-13.501,-2.759 -24.491,8.231 -24.491,21.732C-24.491,35.233 -13.501,46.214 0,46.214C13.501,46.214 24.482,35.233 24.482,21.732C24.482,8.231 13.501,-2.759 0,-2.759" style="fill:rgb(8,18,26);fill-rule:nonzero;"/>
            </g>
            <g transform="matrix(1,0,0,1,223.356,202.894)">
                <path d="M0,19.837C-5.481,19.837 -9.914,15.395 -9.914,9.923C-9.914,4.442 -5.481,0.009 0,0.009C1.757,0.009 3.403,0.459 4.838,1.269C3.955,2.106 3.403,3.283 3.403,4.598C3.403,7.136 5.463,9.187 7.992,9.187C8.654,9.187 9.28,9.049 9.85,8.801C9.896,9.169 9.914,9.546 9.914,9.923C9.914,15.395 5.472,19.837 0,19.837M0,-11.809C-11.983,-11.809 -21.732,-2.061 -21.732,9.923C-21.732,21.906 -11.983,31.646 0,31.646C11.974,31.646 21.723,21.906 21.723,9.923C21.723,-2.061 11.974,-11.809 0,-11.809" style="fill:white;fill-rule:nonzero;"/>
            </g>
            <g transform="matrix(1,0,0,1,293.297,208.917)">
                <path d="M0,7.799C-0.69,7.799 -1.251,7.238 -1.251,6.548C-1.251,5.859 -0.69,5.298 0,5.298C0.69,5.298 1.251,5.859 1.251,6.548C1.251,7.238 0.69,7.799 0,7.799M5.215,2.778C4.644,3.026 4.019,3.164 3.357,3.164C0.828,3.164 -1.232,1.113 -1.232,-1.425C-1.232,-2.74 -0.681,-3.918 0.202,-4.755C-1.232,-5.564 -2.878,-6.015 -4.635,-6.015C-10.116,-6.015 -14.549,-1.582 -14.549,3.9C-14.549,9.372 -10.116,13.814 -4.635,13.814C0.837,13.814 5.279,9.372 5.279,3.9C5.279,3.523 5.261,3.145 5.215,2.778" style="fill:rgb(8,18,26);fill-rule:nonzero;"/>
            </g>
            <g transform="matrix(1,0,0,1,288.653,191.084)">
                <path d="M0,43.455C-11.974,43.455 -21.723,33.716 -21.723,21.732C-21.723,9.749 -11.974,0 0,0C11.983,0 21.732,9.749 21.732,21.732C21.732,33.716 11.983,43.455 0,43.455M0,-2.759C-13.501,-2.759 -24.482,8.231 -24.482,21.732C-24.482,35.233 -13.501,46.214 0,46.214C13.501,46.214 24.491,35.233 24.491,21.732C24.491,8.231 13.501,-2.759 0,-2.759" style="fill:rgb(8,18,26);fill-rule:nonzero;"/>
            </g>
            <g transform="matrix(1,0,0,1,288.662,202.894)">
                <path d="M0,19.837C-5.481,19.837 -9.914,15.395 -9.914,9.923C-9.914,4.442 -5.481,0.009 0,0.009C1.757,0.009 3.403,0.459 4.837,1.269C3.955,2.106 3.403,3.283 3.403,4.598C3.403,7.136 5.463,9.187 7.992,9.187C8.654,9.187 9.28,9.049 9.85,8.801C9.896,9.169 9.914,9.546 9.914,9.923C9.914,15.395 5.472,19.837 0,19.837M-0.009,-11.809C-11.983,-11.809 -21.732,-2.061 -21.732,9.923C-21.732,21.906 -11.983,31.646 -0.009,31.646C11.974,31.646 21.723,21.906 21.723,9.923C21.723,-2.061 11.974,-11.809 -0.009,-11.809" style="fill:white;fill-rule:nonzero;"/>
            </g>
            <g transform="matrix(0,-1,-1,0,293.298,214.215)">
                <path d="M-1.251,-1.251C-1.94,-1.251 -2.502,-0.689 -2.502,0C-2.502,0.69 -1.94,1.251 -1.251,1.251C-0.561,1.251 0,0.69 0,0C0,-0.689 -0.561,-1.251 -1.251,-1.251" style="fill:white;fill-rule:nonzero;"/>
            </g>
            <g transform="matrix(1,0,0,1,238.971,255.783)">
                <path d="M0,0.47C0.46,-4.579 4.727,-8.552 9.896,-8.552L10.438,-8.552C11.045,-6.446 13.768,-4.855 17.032,-4.855C20.297,-4.855 23.02,-6.446 23.627,-8.552L24.169,-8.552C29.338,-8.552 33.605,-4.579 34.065,0.47L0,0.47ZM24.105,9.087C24.105,11.065 22.495,12.674 20.518,12.674C18.541,12.674 16.931,11.065 16.931,9.087L16.931,2.309L24.105,2.309L24.105,9.087ZM15.092,9.087C15.092,11.065 13.483,12.674 11.505,12.674C9.528,12.674 7.918,11.065 7.918,9.087L7.918,2.309L15.092,2.309L15.092,9.087ZM24.169,-10.391L23.617,-10.391C22.983,-12.47 20.279,-14.043 17.032,-14.043C13.786,-14.043 11.082,-12.47 10.448,-10.391L9.896,-10.391C3.403,-10.391 -1.885,-5.103 -1.885,1.39L-1.885,2.309L6.079,2.309L6.079,9.087C6.079,12.076 8.516,14.513 11.505,14.513C13.391,14.513 15.046,13.548 16.012,12.095C16.977,13.548 18.642,14.513 20.518,14.513C23.507,14.513 25.944,12.076 25.944,9.087L25.944,2.309L35.95,2.309L35.95,1.39C35.95,-5.103 30.662,-10.391 24.169,-10.391" style="fill:rgb(8,18,26);fill-rule:nonzero;"/>
            </g>
            <g transform="matrix(1,0,0,1,254.063,268.457)">
                <path d="M0,-10.365L0,-3.587C0,-1.61 -1.609,0 -3.587,0C-5.564,0 -7.174,-1.61 -7.174,-3.587L-7.174,-10.365L0,-10.365Z" style="fill:white;fill-rule:nonzero;"/>
            </g>
            <g transform="matrix(1,0,0,1,263.076,268.457)">
                <path d="M0,-10.365L0,-3.587C0,-1.61 -1.609,0 -3.587,0C-5.564,0 -7.173,-1.61 -7.173,-3.587L-7.173,-10.365L0,-10.365Z" style="fill:white;fill-rule:nonzero;"/>
            </g>
            <g transform="matrix(1,0,0,1,273.036,247.231)">
                <path d="M0,9.022L-34.065,9.022C-33.605,3.973 -29.338,0 -24.169,0L-23.627,0C-23.02,2.106 -20.297,3.697 -17.032,3.697C-13.768,3.697 -11.045,2.106 -10.438,0L-9.896,0C-4.727,0 -0.46,3.973 0,9.022" style="fill:rgb(232,191,121);fill-rule:nonzero;"/>
            </g>
            <g transform="matrix(1,0,0,1,198.897,413.132)">
                <path d="M0,-0.295L-7.652,4.8L-7.928,5.021C-7.974,5.067 -12.793,9.739 -22.219,11.385C-24.601,11.799 -26.33,10.52 -27.149,9.178C-27.958,7.863 -28.317,5.784 -26.901,3.89L-14.963,-12.094C-14.963,-12.094 -7.67,-4.424 0,-0.295" style="fill:rgb(38,172,229);fill-rule:nonzero;"/>
            </g>
            <g transform="matrix(1,0,0,1,340.252,403.659)">
                <path d="M0,18.651C-0.818,19.994 -2.547,21.272 -4.929,20.858C-14.356,19.212 -19.175,14.54 -19.221,14.494L-19.497,14.273L-27.149,9.178C-20.067,5.325 -12.186,-2.621 -12.186,-2.621L-0.248,13.363C1.168,15.257 0.809,17.336 0,18.651" style="fill:rgb(38,172,229);fill-rule:nonzero;"/>
            </g>
            <g transform="matrix(1,0,0,1,255.972,382.802)">
                <path d="M0,-47.571C-2.293,-47.54 -4.176,-49.372 -4.207,-51.665C-4.239,-53.958 -2.407,-55.841 -0.114,-55.872C2.179,-55.903 4.062,-54.071 4.093,-51.778C4.125,-49.485 2.293,-47.603 0,-47.571M15.247,-45.704C15.132,-54.109 8.225,-60.829 -0.18,-60.714C-8.585,-60.599 -15.305,-53.692 -15.19,-45.287C-15.103,-38.951 -11.155,-33.571 -5.617,-31.36L-5.043,10.57L-2.281,13.258L1.092,13.212L6.123,8.04L6.079,4.755L2.748,1.514L2.705,-1.599L4.752,-3.703L4.652,-10.966L2.373,-13.183L4.591,-15.462L4.453,-25.492L8.95,-25.554L7.516,-32.242C12.198,-34.894 15.325,-39.946 15.247,-45.704" style="fill:rgb(38,172,229);fill-rule:nonzero;"/>
            </g>
        </g>
    </g>
</svg>
